# Blender v2.78 (sub 0) OBJ File: 'shirt_div.blend'
# www.blender.org
mtllib sleeve_right.mtl
o sleeve_right_default.003
v 0.834389 1.262411 0.039167
v 0.859807 1.300949 -0.086084
v 0.946203 1.183554 0.020474
v 0.965695 1.202357 -0.093258
v 1.063899 1.014935 -0.004477
v 1.081555 1.038619 -0.108300
v 1.171671 0.835629 -0.038316
v 1.186061 0.855680 -0.129118
v 1.056432 1.010949 -0.218220
v 1.177805 0.857173 -0.231554
v 0.846662 1.281788 -0.193987
v 0.955189 1.175834 -0.206428
v 1.122093 0.817689 -0.310928
v 1.034696 0.754596 -0.335171
v 0.955392 0.868581 -0.344223
v 1.018516 0.959958 -0.298744
v 0.804527 1.209375 -0.294578
v 0.917018 1.097499 -0.314583
v 0.878196 0.990732 -0.357596
v 0.792776 1.081560 -0.378912
v 0.901460 0.771905 -0.325093
v 0.944222 0.699924 -0.323518
v 0.845591 0.861734 -0.349812
v 0.910801 0.766144 0.074609
v 0.842764 0.703213 -0.034355
v 0.903316 0.633524 -0.032490
v 0.984021 0.670659 0.076770
v 1.072460 0.737272 0.082866
v 0.974334 0.852217 0.093777
v 0.821027 0.846060 0.081364
v 0.862808 0.970502 0.139689
v 1.021450 0.942803 0.061923
v 1.131668 0.796372 0.029292
v 0.905032 1.103605 0.102356
v 0.786435 1.148601 0.130870
v 0.784788 0.911108 -0.381803
v 0.736887 0.840086 0.114594
v 0.759537 1.024724 0.166041
v 0.732319 0.746024 -0.013317
v 0.795211 0.767867 -0.030148
v 0.768554 0.796473 -0.279400
v 0.808331 0.694654 -0.165259
v 0.778864 0.737731 -0.164730
v 0.814201 0.775715 -0.274103
v 0.860983 0.705567 -0.273473
v 0.850167 0.635549 -0.163638
v 0.886354 0.656353 -0.265150
v 0.736410 0.747255 -0.164310
vt 0.5661 0.3000
vt 0.4872 0.3036
vt 0.4860 0.2013
vt 0.5853 0.2057
vt 0.5650 0.4447
vt 0.4901 0.4444
vt 0.5599 0.5930
vt 0.4898 0.5927
vt 0.4091 0.4577
vt 0.4164 0.5956
vt 0.4038 0.2131
vt 0.4094 0.3207
vt 0.3442 0.6003
vt 0.2694 0.6065
vt 0.2573 0.5093
vt 0.3375 0.4766
vt 0.3118 0.2432
vt 0.3209 0.3566
vt 0.2517 0.4067
vt 0.2308 0.3183
vt 0.1898 0.5538
vt 0.1981 0.6133
vt 0.1851 0.4757
vt 0.7801 0.5314
vt 0.8744 0.5682
vt 0.8526 0.6283
vt 0.7592 0.6154
vt 0.6878 0.6024
vt 0.7085 0.5034
vt 0.8098 0.4489
vt 0.7309 0.3852
vt 0.6377 0.4707
vt 0.6227 0.5933
vt 0.6460 0.3283
vt 0.6908 0.2432
vt 0.1656 0.4182
vt 0.8552 0.3996
vt 0.7668 0.3000
vt 0.8912 0.5128
vt 0.9218 0.4769
vt 0.0507 0.6000
vt 0.0404 0.5676
vt 0.1203 0.5326
vt 0.1347 0.5909
vt 0.9775 0.5629
vt 0.9663 0.5944
vt 0.9492 0.6401
vt 0.1368 0.6307
vt 0.0625 0.6487
vt 0.9931 0.5449
vt 0.1023 0.5025
vt 0.0215 0.5438
vn 0.6581 0.5845 0.4746
vn 0.7507 0.6607 0.0068
vn 0.6770 0.7342 0.0514
vn 0.5671 0.6111 0.5523
vn 0.7580 0.4106 0.5067
vn 0.8402 0.5415 -0.0285
vn 0.8061 0.4027 0.4337
vn 0.8692 0.4867 0.0870
vn 0.7077 0.5288 -0.4686
vn 0.7119 0.5943 -0.3741
vn 0.6099 0.6788 -0.4089
vn 0.6913 0.5932 -0.4125
vn 0.3768 0.3478 -0.8585
vn 0.0838 -0.0208 -0.9963
vn 0.1594 0.0130 -0.9871
vn 0.5144 0.3610 -0.7779
vn 0.4768 0.5162 -0.7115
vn 0.4480 0.4165 -0.7911
vn 0.2987 0.0614 -0.9524
vn 0.3890 0.2609 -0.8835
vn -0.2487 -0.2833 -0.9262
vn -0.3294 -0.2158 -0.9192
vn 0.0535 -0.3671 -0.9286
vn -0.3473 -0.3409 0.8736
vn -0.6927 -0.5649 0.4484
vn -0.6665 -0.5661 0.4851
vn -0.3566 -0.2531 0.8993
vn 0.2410 0.1143 0.9638
vn 0.2036 -0.0464 0.9780
vn -0.0163 -0.6149 0.7884
vn 0.2289 -0.1294 0.9648
vn 0.5336 0.1978 0.8223
vn 0.6144 0.2999 0.7297
vn 0.4728 0.3271 0.8182
vn 0.4137 0.3366 0.8459
vn 0.2843 -0.2220 -0.9327
vn 0.3243 -0.4644 0.8241
vn 0.3182 0.0239 0.9477
vn -0.2097 -0.8710 0.4443
vn 0.3223 -0.8740 0.3637
vn -0.8175 -0.5684 -0.0933
vn -0.5544 -0.8259 -0.1028
vn -0.5041 -0.6076 -0.6138
vn -0.6244 -0.4318 -0.6509
vn -0.8160 -0.5779 -0.0122
vn -0.6848 -0.4500 -0.5732
vn -0.0040 -0.9768 -0.2140
vn -0.1365 -0.8575 -0.4961
usemtl default
s 1
f 3/1/1 4/2/2 2/3/3 1/4/4
f 5/5/5 6/6/6 4/2/2 3/1/1
f 6/6/6 5/5/5 7/7/7 8/8/8
f 9/9/9 6/6/6 8/8/8 10/10/10
f 11/11/11 2/3/3 4/2/2 12/12/12
f 12/12/12 4/2/2 6/6/6 9/9/9
f 13/13/13 14/14/14 15/15/15 16/16/16
f 16/16/16 9/9/9 10/10/10 13/13/13
f 17/17/17 11/11/11 12/12/12 18/18/18
f 18/18/18 12/12/12 9/9/9 16/16/16
f 16/16/16 15/15/15 19/19/19 18/18/18
f 20/20/20 17/17/17 18/18/18 19/19/19
f 21/21/21 15/15/15 14/14/14 22/22/22
f 23/23/23 19/19/19 15/15/15 21/21/21
f 24/24/24 25/25/25 26/26/26 27/27/27
f 24/24/24 27/27/27 28/28/28 29/29/29
f 30/30/30 24/24/24 29/29/29 31/31/31
f 7/7/7 5/5/5 32/32/32 33/33/33
f 34/34/34 3/1/1 1/4/4 35/35/35
f 32/32/32 34/34/34 31/31/31 29/29/29
f 5/5/5 3/1/1 34/34/34 32/32/32
f 29/29/29 28/28/28 33/33/33 32/32/32
f 36/36/36 20/20/20 19/19/19 23/23/23
f 37/37/37 30/30/30 31/31/31 38/38/38
f 34/34/34 35/35/35 38/38/38 31/31/31
f 24/24/24 30/30/30 40/39/39 25/25/25
f 30/30/30 37/37/37 39/40/40 40/39/39
f 42/41/41 43/42/42 44/43/43 45/44/44
f 25/25/25 40/39/39 43/45/42 42/46/41
f 46/47/45 26/26/26 25/25/25 42/46/41
f 45/44/44 47/48/46 46/49/45 42/41/41
f 45/44/44 21/21/21 22/22/22 47/48/46
f 44/43/43 23/23/23 21/21/21 45/44/44
f 40/39/39 39/40/40 48/50/47 43/45/42
f 41/51/48 44/43/43 43/42/42 48/52/47
f 41/51/48 36/36/36 23/23/23 44/43/43
