# Blender v2.78 (sub 0) OBJ File: 'shirt_div.blend'
# www.blender.org
mtllib sleeve_left.mtl
o sleeve_left_default.002
v -0.860100 1.301727 -0.086269
v -0.834567 1.262417 0.039951
v -0.847004 1.281466 -0.194367
v -0.966147 1.202743 -0.093290
v -0.946276 1.183623 0.020451
v -0.955663 1.176239 -0.206690
v -1.058062 1.012085 -0.220230
v -1.087302 1.029410 -0.116208
v -1.078774 1.002458 -0.018101
v -1.211939 0.824584 -0.128965
v -1.199517 0.803391 -0.044246
v -1.208015 0.824494 -0.238394
v -0.738949 0.747321 -0.163868
v -0.719076 0.750864 -0.016038
v -0.786137 0.765647 -0.026904
v -0.767564 0.735499 -0.166194
v -0.817266 0.763483 -0.287400
v -0.773415 0.792521 -0.280234
v -0.734113 0.841738 0.113711
v -0.813387 0.842503 0.088184
v -0.760062 1.025331 0.170540
v -0.861659 0.970424 0.151497
v -0.786363 1.148525 0.130638
v -0.905112 1.103621 0.102444
v -0.843988 0.863184 -0.347856
v -0.784930 0.911199 -0.381408
v -0.804830 1.209942 -0.295385
v -0.791337 1.079740 -0.374515
v -0.913435 1.094877 -0.309647
v -0.879538 0.991379 -0.363335
v -0.842705 0.702581 -0.033806
v -0.802899 0.684556 -0.167582
v -0.860933 0.705493 -0.273543
v -0.928303 0.591709 -0.049345
v -0.887829 0.588633 -0.163014
v -0.927539 0.616226 -0.276718
v -0.910550 0.765935 0.074689
v -0.974364 0.852217 0.093889
v -1.038336 0.936425 0.053537
v -0.901480 0.771820 -0.325520
v -0.954782 0.868068 -0.337155
v -1.015720 0.957375 -0.294227
v -1.156070 0.775702 -0.308700
v -1.077941 0.719122 -0.330426
v -0.981041 0.649158 -0.322817
v -1.163392 0.763810 0.024923
v -1.096016 0.695595 0.086887
v -1.009787 0.631855 0.074246
vt 0.5162 0.2324
vt 0.5213 0.3313
vt 0.4451 0.3325
vt 0.4206 0.2429
vt 0.5952 0.2389
vt 0.5975 0.3427
vt 0.6089 0.4744
vt 0.5335 0.4747
vt 0.4564 0.4829
vt 0.5372 0.6374
vt 0.4820 0.6388
vt 0.6120 0.6376
vt 0.0432 0.5956
vt 0.1012 0.5199
vt 0.1359 0.5546
vt 0.0526 0.6078
vt 0.9760 0.5421
vt 0.8853 0.5276
vt 0.9027 0.4969
vt 0.9866 0.5236
vt 0.1709 0.4471
vt 0.2121 0.4889
vt 0.2511 0.3447
vt 0.2889 0.4167
vt 0.3216 0.2855
vt 0.3700 0.3586
vt 0.8242 0.4724
vt 0.8384 0.4161
vt 0.6845 0.3694
vt 0.6848 0.2597
vt 0.7679 0.3262
vt 0.7545 0.4115
vt 0.1572 0.6095
vt 0.0671 0.6436
vt 0.9675 0.5819
vt 0.8839 0.5782
vt 0.1826 0.7028
vt 0.1046 0.7198
vt 0.9522 0.6664
vt 0.8705 0.6533
vt 0.2477 0.5688
vt 0.3176 0.5321
vt 0.3890 0.5108
vt 0.8253 0.5489
vt 0.7571 0.5122
vt 0.6788 0.4869
vt 0.6780 0.6430
vt 0.7420 0.6430
vt 0.8196 0.6490
vt 0.4240 0.6507
vt 0.3452 0.6641
vt 0.2807 0.6792
vn -0.6699 0.7401 0.0585
vn -0.7534 0.6574 0.0114
vn -0.6588 0.5806 0.4783
vn -0.5526 0.5995 0.5790
vn -0.6097 0.6713 -0.4214
vn -0.6776 0.5920 -0.4363
vn -0.6845 0.5258 -0.5050
vn -0.8330 0.5507 -0.0535
vn -0.7750 0.4397 0.4539
vn -0.8521 0.5116 0.1103
vn -0.7965 0.4268 0.4284
vn -0.6895 0.5916 -0.4179
vn 0.1654 -0.9602 -0.2250
vn -0.1813 -0.8797 0.4396
vn 0.2302 -0.8708 0.4345
vn 0.6187 -0.7802 -0.0921
vn 0.4802 -0.5488 -0.6843
vn 0.2828 -0.5227 -0.8042
vn -0.2440 -0.4860 0.8392
vn 0.0281 -0.6324 0.7742
vn -0.3234 0.0211 0.9460
vn -0.2439 -0.1102 0.9635
vn -0.3855 0.3941 0.8343
vn -0.4783 0.3518 0.8047
vn -0.0874 -0.3337 -0.9386
vn -0.1537 -0.3472 -0.9251
vn -0.4854 0.4189 -0.7674
vn -0.4737 0.5120 -0.7166
vn -0.3880 0.2560 -0.8854
vn -0.3169 0.0721 -0.9457
vn 0.6404 -0.5935 0.4874
vn 0.7848 -0.6109 -0.1045
vn 0.5757 -0.4837 -0.6593
vn 0.6799 -0.5866 0.4400
vn 0.7474 -0.6634 -0.0364
vn 0.6334 -0.4503 -0.6293
vn 0.3109 -0.3647 0.8777
vn -0.2346 -0.0496 0.9708
vn -0.5492 0.2333 0.8025
vn 0.2257 -0.2645 -0.9376
vn -0.2062 0.0140 -0.9784
vn -0.4754 0.3426 -0.8103
vn -0.3391 0.3321 -0.8802
vn -0.0860 0.0261 -0.9960
vn 0.2799 -0.2022 -0.9385
vn -0.6118 0.3236 0.7218
vn -0.1955 0.1083 0.9747
vn 0.3953 -0.2954 0.8698
usemtl default
s 1
f 1/1/1 4/2/2 5/3/3 2/4/4
f 3/5/5 6/6/6 4/2/2 1/1/1
f 6/6/6 7/7/7 8/8/8 4/2/2
f 4/2/2 8/8/8 9/9/9 5/3/3
f 10/10/10 11/11/11 9/9/9 8/8/8
f 7/7/7 12/12/12 10/10/10 8/8/8
f 13/13/13 14/14/14 15/15/15 16/16/16
f 16/17/16 17/18/17 18/19/18 13/20/13
f 19/21/19 20/22/20 15/15/15 14/14/14
f 19/21/19 21/23/21 22/24/22 20/22/20
f 21/23/21 23/25/23 24/26/24 22/24/22
f 2/4/4 5/3/3 24/26/24 23/25/23
f 25/27/25 26/28/26 18/19/18 17/18/17
f 29/29/27 27/30/28 28/31/29 30/32/30
f 26/28/26 25/27/25 30/32/30 28/31/29
f 27/30/28 29/29/27 6/6/6 3/5/5
f 31/33/31 32/34/32 16/16/16 15/15/15
f 32/35/32 33/36/33 17/18/17 16/17/16
f 31/33/31 34/37/34 35/38/35 32/34/32
f 35/39/35 36/40/36 33/36/33 32/35/32
f 15/15/15 20/22/20 37/41/37 31/33/31
f 20/22/20 22/24/22 38/42/38 37/41/37
f 22/24/22 24/26/24 39/43/39 38/42/38
f 24/26/24 5/3/3 9/9/9 39/43/39
f 25/27/25 40/44/40 41/45/41 30/32/30
f 17/18/17 33/36/33 40/44/40 25/27/25
f 7/7/7 6/6/6 29/29/27 42/46/42
f 30/32/30 41/45/41 42/46/42 29/29/27
f 42/46/42 43/47/43 12/12/12 7/7/7
f 41/45/41 44/48/44 43/47/43 42/46/42
f 40/44/40 45/49/45 44/48/44 41/45/41
f 33/36/33 36/40/36 45/49/45 40/44/40
f 11/11/11 46/50/46 39/43/39 9/9/9
f 46/50/46 47/51/47 38/42/38 39/43/39
f 48/52/48 34/37/34 31/33/31 37/41/37
f 47/51/47 48/52/48 37/41/37 38/42/38
